HIERARCHY
ROOT Hips
{
	OFFSET 0.000000 0.000000 0.000000
	CHANNELS 6 Xposition Yposition Zposition Zrotation Xrotation Yrotation
	JOINT RightUpLeg
	{
		OFFSET -10.032200 0.000000 0.000000
		CHANNELS 3 Zrotation Xrotation Yrotation
		JOINT RightLeg
		{
			OFFSET 0.000000 -40.977000 0.000000
			CHANNELS 3 Zrotation Xrotation Yrotation
			JOINT RightFoot
			{
				OFFSET 0.000000 -38.933200 0.000000
				CHANNELS 3 Zrotation Xrotation Yrotation
				JOINT RightToe
				{
					OFFSET 0.000000 -1.977400 9.184000
					CHANNELS 3 Zrotation Xrotation Yrotation
					JOINT RightToeEnd
					{
						OFFSET 0.000000 2.335600 6.099100
						CHANNELS 3 Zrotation Xrotation Yrotation
						End Site
						{
						    OFFSET 0.000000 1.788000 4.669400
						}
					}
				}
			}
		}
	}
	JOINT LeftUpLeg
	{
		OFFSET 10.032200 0.000000 0.000000
		CHANNELS 3 Zrotation Xrotation Yrotation
		JOINT LeftLeg
		{
			OFFSET 0.000000 -40.977000 0.000000
			CHANNELS 3 Zrotation Xrotation Yrotation
			JOINT LeftFoot
			{
				OFFSET 0.000000 -38.933200 0.000000
				CHANNELS 3 Zrotation Xrotation Yrotation
				JOINT LeftToe
				{
					OFFSET 0.000000 -1.977400 9.184000
					CHANNELS 3 Zrotation Xrotation Yrotation
					JOINT LeftToeEnd
					{
						OFFSET 0.000000 2.335600 6.099100
						CHANNELS 3 Zrotation Xrotation Yrotation
						End Site
						{
						    OFFSET 0.000000 1.788000 4.669400
						}
					}
				}
			}
		}
	}
	JOINT Spine
	{
		OFFSET 0.000000 16.960900 0.000000
		CHANNELS 3 Zrotation Xrotation Yrotation
		JOINT Spine1
		{
			OFFSET 0.000000 13.413900 0.000000
			CHANNELS 3 Zrotation Xrotation Yrotation
			JOINT Spine2
			{
				OFFSET 0.000000 10.384400 0.000000
				CHANNELS 3 Zrotation Xrotation Yrotation
				JOINT LeftShoulder
				{
					OFFSET 2.000000 10.384400 0.000000
					CHANNELS 3 Zrotation Xrotation Yrotation
					JOINT LeftArm
					{
						OFFSET 15.649100 0.000000 0.000000
						CHANNELS 3 Zrotation Xrotation Yrotation
						JOINT LeftForeArm
						{
							OFFSET 0.000000 -26.641600 0.000000
							CHANNELS 3 Zrotation Xrotation Yrotation
							JOINT LeftHand
							{
								OFFSET 0.000000 -23.740600 0.000000
								CHANNELS 3 Zrotation Xrotation Yrotation
								JOINT LeftFinger0
								{
									OFFSET 0.000000 -7.620900 0.000000
									CHANNELS 3 Zrotation Xrotation Yrotation
									End Site
									{
									    OFFSET 0.000000 -5.000000 0.000000
									}
								}
							}
						}
					}
				}
				JOINT RightShoulder
				{
					OFFSET -2.000000 10.384400 0.000000
					CHANNELS 3 Zrotation Xrotation Yrotation
					JOINT RightArm
					{
						OFFSET -15.649100 0.000000 0.000000
						CHANNELS 3 Zrotation Xrotation Yrotation
						JOINT RightForeArm
						{
							OFFSET 0.000000 -26.641600 0.000000
							CHANNELS 3 Zrotation Xrotation Yrotation
							JOINT RightHand
							{
								OFFSET 0.000000 -23.740600 0.000000
								CHANNELS 3 Zrotation Xrotation Yrotation
								JOINT RightFinger0
								{
									OFFSET 0.000000 -7.620900 0.000000
									CHANNELS 3 Zrotation Xrotation Yrotation
									End Site
									{
									    OFFSET 0.000000 -5.000000 0.000000
									}
								}
							}
						}
					}
				}
				JOINT Neck
				{
					OFFSET 0.000000 10.384400 0.000000
					CHANNELS 3 Zrotation Xrotation Yrotation
					JOINT Head
					{
						OFFSET 0.000000 10.146900 0.000000
						CHANNELS 3 Zrotation Xrotation Yrotation
						JOINT HeadTip
						{
							OFFSET 0.000000 10.000000 0.000000
							CHANNELS 3 Zrotation Xrotation Yrotation
							End Site
							{
							    OFFSET 0.000000 5.000000 0.000000
							}
						}
					}
				}
			}
		}
	}
}
MOTION
Frames:	11
Frame Time:	0.033332
-184.463200 84.023600 -1.011200 7.382185 -2.207759 37.993569 -19.207305 -14.982491 -17.001201 0.000000 32.637359 -0.000000 8.502979 14.702249 -5.602165 -0.000000 0.433537 -0.000000 -0.000000 0.000000 0.000000 8.442485 4.695240 50.038194 -0.000000 29.495611 -0.000000 -9.610936 12.242931 10.726016 -0.000000 -9.784528 -0.000000 -0.000000 0.000000 -0.000000 15.715534 4.143587 -15.340498 -0.000000 4.636341 -0.000000 0.000000 0.000000 -0.000000 0.492637 0.000000 -5.224449 29.628021 -47.823445 11.011622 -180.000037 -62.529802 -180.000037 34.164876 5.570774 -16.455473 0.000000 0.000000 -0.000000 17.283144 0.000000 4.406942 -42.643179 -37.168986 23.624176 -0.000431 -70.557645 -0.000305 -2.970842 15.554809 50.272721 -0.000000 0.000000 -0.000000 0.000000 0.000000 -0.000000 24.006482 -0.265141 -71.915104 -0.000000 0.000000 0.000000 
-183.353900 84.624800 -2.669800 6.331018 -0.165625 26.862005 -19.938991 -19.887199 -20.801119 -0.000000 27.861449 -0.000000 7.323374 20.150161 0.741490 0.000000 3.658764 -0.000000 -0.000000 0.000000 0.000000 5.515400 3.723339 51.202664 -0.000000 28.610555 -0.000000 -10.462317 15.547044 11.489197 0.000000 -11.174813 -0.000000 0.000000 0.000000 -0.000000 20.522150 7.084895 -17.352888 0.000000 4.658070 -0.000000 0.000000 0.000000 -0.000000 4.366180 -0.000000 -5.939179 31.214756 -52.046642 13.372398 180.000037 -71.558283 180.000037 26.801856 17.105126 -10.574340 -0.000000 0.000000 -0.000000 17.435471 0.000000 5.713441 -39.677966 -43.464914 23.419825 -0.000572 -75.119365 -0.000440 -4.010224 13.324922 48.219701 0.000000 0.000000 0.000000 0.000000 0.000000 -0.000000 29.414575 0.033412 -72.233990 0.000000 0.000000 0.000000 
-182.603100 85.269700 -3.949600 5.658982 2.908312 17.064057 -19.367865 -25.041390 -23.012543 -0.000000 24.320079 0.000000 6.964268 22.229770 -0.508740 -0.000000 4.045688 -0.000000 0.000000 -0.000000 -0.000000 3.835758 1.391610 50.552444 -0.000000 28.276410 -0.000000 -11.194376 20.245153 9.271287 -0.000000 -12.978267 -0.000000 -0.000000 -0.000000 0.000000 23.785865 11.015268 -19.589871 -0.000000 4.902550 -0.000000 -0.000000 0.000000 -0.000000 6.953806 -0.000000 -5.839687 34.022080 -55.000394 13.133353 180.000037 -73.311279 -180.000037 25.403250 16.224017 -8.045717 0.000000 0.000000 -0.000000 17.195689 0.000000 6.169551 -36.506965 -46.545320 20.660539 -0.001457 -84.043719 -0.001313 -2.637932 14.708064 43.807018 -0.000000 -0.000000 0.000000 -0.000000 0.000000 -0.000000 34.077337 1.600635 -68.482720 0.000000 0.000000 0.000000 
-182.187300 85.682800 -4.895900 5.720386 6.684863 8.142055 -18.914330 -30.400689 -26.510903 0.000000 26.054069 -0.000000 4.392981 18.649772 -11.862549 -0.000000 3.993005 -0.000000 -0.000000 0.000000 -0.000000 3.856404 -2.414604 48.695562 -0.000000 30.160066 -0.000000 -10.038617 25.586372 5.011579 -0.000000 -14.495821 -0.000000 0.000000 0.000000 -0.000000 25.208725 15.437226 -21.132918 0.000000 5.707092 -0.000000 0.000000 0.000000 -0.000000 8.480610 -0.000000 -4.641957 35.114706 -58.089589 7.461555 -180.000037 -68.869353 -180.000037 22.794606 9.635572 -15.853807 -0.000000 0.000000 -0.000000 15.764846 0.000000 6.277057 -36.100767 -47.141281 14.561138 -179.998130 -85.443207 -179.997972 -4.079933 14.130744 42.167209 0.000000 0.000000 0.000000 0.000000 0.000000 -0.000000 36.442471 3.966096 -64.019449 -0.000000 0.000000 -0.000000 
-181.951700 85.581400 -5.639900 6.965734 10.875675 0.036590 -19.220128 -34.711372 -30.425148 -0.000000 30.395957 0.000000 6.496812 17.829939 -18.430438 -0.000000 3.432111 0.000000 -0.000000 -0.000000 0.000000 5.349980 -8.046310 46.310787 -0.000000 35.412803 -0.000000 -8.060580 29.985887 -0.178164 0.000000 -14.244177 0.000000 -0.000000 0.000000 -0.000000 24.516025 19.884892 -21.192515 -0.000000 6.453988 -0.000000 0.000000 -0.000000 -0.000000 9.063951 0.000000 -4.201368 32.937855 -61.923680 -2.183136 -180.000037 -66.341670 -180.000037 13.411355 6.386819 -16.446867 0.000000 0.000000 -0.000000 12.911323 0.000000 5.703466 -39.017410 -45.329450 3.990312 -179.999347 -77.583816 -179.999178 -8.797590 10.665401 39.116603 0.000000 0.000000 -0.000000 0.000000 -0.000000 -0.000000 36.474314 6.368675 -58.383433 -0.000000 -0.000000 -0.000000 
-181.883400 84.991900 -6.157700 8.804598 15.395040 -7.174593 -18.467559 -37.382604 -34.097497 -0.000000 28.506994 -0.000000 3.751223 12.592216 -9.313252 -0.000000 2.887563 -0.000000 -0.000000 0.000000 -0.000000 8.917672 -15.614596 45.109821 -0.000000 43.960770 0.000000 -7.433377 33.166851 -4.249714 -0.000000 -9.957398 -0.000000 -0.000000 0.000000 -0.000000 22.878943 23.736715 -20.589823 -0.000000 6.785590 -0.000000 -0.000000 -0.000000 0.000000 8.999591 -0.000000 -4.773114 26.827550 -63.599373 -14.249703 180.000037 -65.962547 -180.000037 7.230765 7.724624 -10.105949 -0.000000 -0.000000 -0.000000 10.751892 0.000000 5.216112 -45.204361 -40.782532 -9.692067 -179.999442 -75.678958 -179.999271 -13.523906 8.358383 33.708649 -0.000000 0.000000 0.000000 -0.000000 -0.000000 0.000000 34.776365 8.838786 -51.095650 -0.000000 -0.000000 -0.000000 
-181.831300 84.711900 -6.546000 10.249724 19.726256 -14.577104 -17.953142 -43.881389 -37.979875 -0.000000 29.029567 0.000000 3.924817 15.350976 -2.070059 -0.000000 4.751160 -0.000000 -0.000000 0.000000 -0.000000 14.970401 -23.277747 46.532119 -0.000000 53.033643 -0.000000 -8.151347 33.634909 -2.587389 -0.000000 0.131997 0.000000 -0.000000 0.000000 0.000000 21.653443 28.579394 -19.777453 -0.000000 7.005493 -0.000000 -0.000000 0.000000 -0.000000 8.570749 -0.000000 -5.477876 20.917207 -62.429119 -23.532105 -180.000037 -66.979658 -180.000037 9.664288 9.265697 -4.369353 -0.000000 0.000000 -0.000000 9.659780 -0.000000 5.596626 -51.911437 -34.781421 -22.079099 -179.998860 -82.641647 -179.998698 -16.640025 8.010590 28.956401 -0.000000 0.000000 -0.000000 -0.000000 0.000000 -0.000000 31.661166 10.936429 -41.670083 0.000000 0.000000 -0.000000 
-182.094600 84.457800 -6.196600 11.867295 21.250783 -19.649815 -17.367130 -46.168384 -40.813357 0.000000 29.037312 -0.000000 2.551116 15.762672 2.790298 -0.000000 5.015535 -0.000000 -0.000000 -0.000000 -0.000000 20.149813 -28.158652 47.086390 0.000000 60.901818 -0.000000 -8.184862 30.037708 1.937860 -0.000000 -0.732796 -0.000000 -0.000000 0.000000 -0.000000 19.650308 34.891382 -21.220232 -0.000000 7.798194 -0.000000 -0.000000 -0.000000 0.000000 7.201703 0.000000 -5.330389 19.834405 -61.026323 -26.094158 -180.000037 -69.881738 180.000037 12.254324 10.446794 -1.150457 -0.000000 -0.000000 -0.000000 9.839625 -0.000000 6.339312 -55.369654 -28.265338 -28.853041 -0.001349 -83.569247 -0.001205 -15.688587 12.785553 28.251528 0.000000 0.000000 -0.000000 -0.000000 -0.000000 0.000000 29.435801 14.643208 -31.346808 -0.000000 -0.000000 -0.000000 
-182.726500 84.609000 -5.542400 13.698378 21.834040 -21.380026 -17.991740 -47.031046 -41.355010 0.000000 29.092746 -0.000000 2.133052 15.123938 3.065996 -0.000000 4.648316 0.000000 -0.000000 -0.000000 -0.000000 22.867830 -33.148794 46.141604 -0.000000 65.545063 -0.000000 -7.158734 28.285738 0.403324 -0.000000 -2.083375 -0.000000 -0.000000 0.000000 -0.000000 18.996094 40.704826 -22.919389 0.000000 8.693188 -0.000000 0.000000 0.000000 -0.000000 5.824759 0.000000 -4.689126 19.285270 -59.909958 -26.428854 -180.000037 -71.224307 -180.000037 14.807441 15.367665 4.443305 -0.000000 -0.000000 -0.000000 10.416698 0.000000 6.561151 -56.652933 -19.065819 -29.254231 -0.000408 -69.542070 -0.000283 -17.473108 15.994014 29.990465 0.000000 0.000000 0.000000 0.000000 0.000000 -0.000000 27.271546 17.796906 -24.520906 -0.000000 0.000000 -0.000000 
-183.388700 85.136200 -4.761200 16.309669 22.786767 -23.585134 -18.530401 -48.096036 -41.332605 0.000000 28.005649 -0.000000 1.754274 15.265635 3.863947 -0.000000 4.701084 -0.000000 0.000000 0.000000 0.000000 24.361110 -38.491215 47.031098 -0.000000 67.021894 -0.000000 -7.086751 27.791224 -3.078390 -0.000000 -3.123542 0.000000 -0.000000 0.000000 -0.000000 17.468203 45.379054 -21.163479 -0.000000 9.850355 0.000000 -0.000000 0.000000 -0.000000 5.034700 -0.000000 -3.689994 18.595226 -58.169964 -26.005192 -180.000037 -69.967115 -180.000037 17.133219 18.188791 15.805677 0.000000 0.000000 0.000000 11.828951 -0.000000 6.782017 -56.715357 -8.339806 -24.980961 -0.000246 -58.271798 -0.000137 -17.701693 14.832792 31.098223 -0.000000 0.000000 -0.000000 -0.000000 0.000000 -0.000000 25.348244 18.863738 -20.087451 0.000000 0.000000 -0.000000 
-184.130200 85.872000 -3.690600 18.860478 23.769533 -26.091574 -18.768240 -48.628576 -42.056857 -0.000000 26.270050 0.000000 1.655819 16.099471 6.325567 -0.000000 5.025663 -0.000000 -0.000000 -0.000000 -0.000000 25.592227 -43.494870 49.722305 0.000000 66.164097 0.000000 -7.339960 26.812851 -3.986762 -0.000000 -2.554565 -0.000000 -0.000000 0.000000 0.000000 15.707897 49.223516 -17.433611 -0.000000 10.775902 0.000000 -0.000000 -0.000000 -0.000000 4.548187 -0.000000 -2.713237 18.794917 -56.107778 -24.230073 -180.000037 -67.083053 -180.000037 18.234335 19.066063 21.455198 -0.000000 0.000000 -0.000000 13.252683 -0.000000 5.762381 -55.208500 -0.581991 -16.949637 -0.000175 -49.066747 -0.000080 -15.902099 14.040083 33.264908 -0.000000 0.000000 -0.000000 -0.000000 -0.000000 -0.000000 23.818282 19.111754 -16.742636 -0.000000 -0.000000 -0.000000 
